<?xml version="1.0" standalone="no"?>
<!DOCTYPE svg PUBLIC "-//W3C//DTD SVG 20010904//EN"
 "http://www.w3.org/TR/2001/REC-SVG-20010904/DTD/svg10.dtd">
<svg version="1.0" xmlns="http://www.w3.org/2000/svg"
 width="463.000000pt" height="81.000000pt" viewBox="0 0 463.000000 81.000000"
 preserveAspectRatio="xMidYMid meet">

<g transform="translate(0.000000,81.000000) scale(0.100000,-0.100000)"
fill="#000000" stroke="none">
<path d="M3913 713 c-35 -14 -61 -29 -58 -34 3 -4 12 -6 20 -2 9 3 22 0 30 -7
13 -10 15 -55 15 -277 0 -163 -4 -272 -10 -284 -6 -10 -20 -19 -30 -19 -11 0
-20 -4 -20 -10 0 -6 42 -10 105 -10 63 0 105 4 105 10 0 6 -10 10 -23 10 -46
0 -47 6 -47 337 0 244 -3 313 -12 313 -7 -1 -41 -12 -75 -27z"/>
<path d="M301 497 c-154 -364 -166 -387 -201 -400 -16 -6 -30 -15 -30 -19 0
-4 45 -8 100 -8 60 0 100 4 100 10 0 6 -11 10 -24 10 -22 0 -56 22 -56 37 0
10 53 139 63 151 6 8 45 12 127 12 l119 0 30 -79 c17 -44 28 -87 25 -96 -4 -9
-19 -19 -35 -22 -65 -13 -22 -23 96 -23 77 0 125 4 125 10 0 6 -8 10 -18 10
-38 0 -70 58 -187 337 -67 158 -125 288 -130 290 -6 1 -52 -97 -104 -220z
m133 -52 c25 -61 46 -114 46 -118 0 -4 -48 -7 -106 -7 -58 0 -104 4 -102 9 29
78 105 238 109 233 4 -4 27 -57 53 -117z"/>
<path d="M2400 702 c0 -6 15 -12 32 -14 54 -5 58 -24 58 -298 0 -274 -4 -293
-58 -298 -17 -2 -32 -7 -32 -13 0 -5 58 -9 135 -9 83 0 135 4 135 10 0 6 -13
10 -29 10 -54 0 -61 18 -61 156 l0 125 65 -7 c111 -11 189 25 221 102 33 80 1
170 -78 214 -40 23 -54 25 -215 28 -117 3 -173 1 -173 -6z m327 -65 c32 -30
37 -41 41 -92 8 -94 -40 -155 -121 -155 -68 0 -67 -2 -67 146 l0 134 55 0 c49
0 60 -4 92 -33z"/>
<path d="M823 483 c-35 -14 -61 -29 -58 -34 3 -4 12 -6 20 -2 9 3 22 0 30 -7
12 -10 15 -42 15 -162 0 -155 -7 -188 -40 -188 -11 0 -20 -4 -20 -10 0 -6 42
-10 105 -10 63 0 105 4 105 10 0 6 -11 10 -24 10 -42 0 -47 18 -44 171 l3 143
34 23 c43 29 92 30 117 2 16 -17 19 -41 22 -152 4 -151 -4 -187 -43 -187 -14
0 -25 -4 -25 -10 0 -6 42 -10 105 -10 63 0 105 4 105 10 0 6 -11 10 -25 10
-38 0 -45 32 -45 191 0 150 -8 183 -52 213 -43 31 -111 14 -170 -42 l-28 -26
0 42 c0 50 -3 50 -87 15z"/>
<path d="M1303 483 c-35 -14 -61 -29 -58 -34 3 -4 12 -6 20 -2 9 3 22 0 30 -7
12 -10 15 -42 15 -162 0 -155 -7 -188 -40 -188 -11 0 -20 -4 -20 -10 0 -6 42
-10 105 -10 63 0 105 4 105 10 0 6 -11 10 -24 10 -42 0 -47 18 -44 171 l3 143
34 23 c43 29 92 30 117 2 16 -17 19 -41 22 -152 4 -151 -4 -187 -43 -187 -14
0 -25 -4 -25 -10 0 -6 42 -10 105 -10 63 0 105 4 105 10 0 6 -11 10 -25 10
-38 0 -45 32 -45 191 0 150 -8 183 -52 213 -43 31 -111 14 -170 -42 l-28 -26
0 42 c0 50 -3 50 -87 15z"/>
<path d="M1833 491 c-52 -24 -80 -72 -64 -107 21 -46 71 -24 71 31 0 38 26 65
64 65 42 0 64 -17 76 -58 18 -65 16 -67 -71 -103 -49 -19 -97 -47 -120 -69
-34 -32 -39 -43 -39 -83 0 -34 6 -53 24 -74 34 -39 104 -40 161 0 47 32 55 33
55 7 0 -12 10 -25 26 -32 21 -10 31 -9 59 7 35 18 71 62 61 72 -3 4 -14 -1
-24 -10 -45 -41 -52 -21 -52 153 0 83 -5 149 -11 164 -24 52 -138 72 -216 37z
m155 -253 l-3 -82 -47 -24 c-46 -23 -49 -24 -73 -8 -37 24 -48 60 -31 100 11
25 29 41 77 65 34 17 66 31 71 31 5 0 8 -37 6 -82z"/>
<path d="M3033 491 c-52 -24 -80 -72 -64 -107 21 -46 71 -24 71 31 0 38 26 65
64 65 42 0 64 -17 76 -58 18 -65 16 -67 -71 -103 -49 -19 -97 -47 -120 -69
-34 -32 -39 -43 -39 -83 0 -34 6 -53 24 -74 34 -39 104 -40 161 0 47 32 55 33
55 7 0 -12 10 -25 26 -32 21 -10 31 -9 59 7 35 18 71 62 61 72 -3 4 -14 -1
-24 -10 -45 -41 -52 -21 -52 153 0 83 -5 149 -11 164 -24 52 -138 72 -216 37z
m155 -253 l-3 -82 -47 -24 c-46 -23 -49 -24 -73 -8 -37 24 -48 60 -31 100 11
25 29 41 77 65 34 17 66 31 71 31 5 0 8 -37 6 -82z"/>
<path d="M4203 491 c-46 -21 -63 -45 -63 -90 0 -20 6 -32 19 -36 32 -10 51 5
51 39 0 49 24 76 69 76 48 0 72 -25 78 -83 l5 -43 -68 -29 c-131 -55 -174 -92
-174 -152 0 -45 19 -82 51 -99 45 -23 82 -17 137 20 l50 35 6 -29 c10 -53 90
-46 130 12 23 33 20 41 -10 22 -42 -28 -48 -10 -54 165 -4 112 -9 163 -19 174
-31 39 -142 48 -208 18z m155 -253 c-3 -81 -3 -82 -36 -101 -44 -26 -82 -25
-104 3 -27 34 -23 81 10 113 24 23 105 66 125 67 4 0 7 -37 5 -82z"/>
<path d="M3340 490 c0 -5 10 -10 23 -10 41 0 47 -17 48 -139 1 -173 9 -219 48
-253 52 -46 103 -37 174 30 l37 36 0 -47 c0 -26 4 -47 10 -47 18 0 140 53 135
59 -3 3 -18 5 -33 6 l-27 0 -3 188 -2 187 -75 0 c-43 0 -75 -4 -75 -10 0 -5
11 -10 25 -10 14 0 29 -8 35 -19 5 -11 10 -80 10 -154 l0 -134 -38 -27 c-42
-29 -88 -34 -118 -12 -17 13 -19 30 -22 190 l-3 176 -75 0 c-43 0 -74 -4 -74
-10z"/>
</g>
</svg>
